<svg width="24" height="26" viewBox="0 0 24 26" fill="none" xmlns="http://www.w3.org/2000/svg">
<path d="M6.36911 8.73587L16.7941 16.9519M1.67423 14.693L11.064 2.77872C12.1535 1.39628 13.7476 0.503268 15.4955 0.296137C17.2434 0.0890061 19.0021 0.584724 20.3845 1.67424C21.767 2.76375 22.66 4.35782 22.8671 6.10576C23.0742 7.85369 22.5785 9.61232 21.489 10.9948L12.0992 22.9091C11.0097 24.2915 9.41566 25.1845 7.66772 25.3917C5.91978 25.5988 4.16115 25.1031 2.77871 24.0135C1.39627 22.924 0.503256 21.33 0.296125 19.582C0.0889941 17.8341 0.584712 16.0755 1.67423 14.693Z" stroke="#FF48A4" stroke-width="0.5" stroke-linecap="round" stroke-linejoin="round"/>
</svg>
