<svg width="44" height="44" viewBox="0 0 44 44" fill="none" xmlns="http://www.w3.org/2000/svg">
<rect width="44" height="44" rx="22" fill="#FFE6F2" fill-opacity="0.25"/>
<path d="M22.0004 12.0625C23.9933 12.0625 25.9046 12.8545 27.3138 14.2637C28.7231 15.6729 29.515 17.5841 29.515 19.5771C29.515 23.2066 30.3589 26.0449 30.9847 27.123V27.124C31.0779 27.2838 31.1276 27.4654 31.1283 27.6504C31.129 27.8355 31.0807 28.0181 30.9886 28.1787C30.8966 28.3391 30.7639 28.4726 30.6039 28.5654C30.4439 28.6582 30.2624 28.7067 30.0775 28.707H25.4984L25.4066 29.1572C25.2462 29.9421 24.8192 30.6477 24.1986 31.1543C23.578 31.6608 22.8014 31.9375 22.0004 31.9375C21.1993 31.9375 20.4227 31.6608 19.8021 31.1543C19.1816 30.6477 18.7555 29.9421 18.5951 29.1572L18.5033 28.707H13.9232C13.7383 28.7068 13.5569 28.6581 13.3968 28.5654C13.2366 28.4726 13.1033 28.3393 13.0111 28.1787C12.919 28.0183 12.8709 27.8363 12.8715 27.6514C12.8721 27.4662 12.9217 27.284 13.015 27.124V27.123C13.6408 26.0451 14.4857 23.2079 14.4857 19.5771C14.4857 17.5841 15.2776 15.6729 16.6869 14.2637C18.0961 12.8544 20.0074 12.0625 22.0004 12.0625ZM19.1859 29.457C19.3916 30.0388 19.773 30.543 20.2767 30.8994C20.7177 31.2113 21.2342 31.3968 21.7699 31.4385L22.0004 31.4482C22.6176 31.448 23.2201 31.2559 23.724 30.8994C24.2278 30.543 24.6091 30.0389 24.8148 29.457L25.0795 28.707H18.9213L19.1859 29.457Z" stroke="#FF48A4" stroke-width="1.125"/>
</svg>
