<svg width="27" height="27" viewBox="0 0 27 27" fill="none" xmlns="http://www.w3.org/2000/svg">
<g clip-path="url(#clip0_1882_2549)">
<path d="M13.0948 26.1896C20.3269 26.1896 26.1896 20.3269 26.1896 13.0948C26.1896 5.86274 20.3269 0 13.0948 0C5.86274 0 0 5.86274 0 13.0948C0 20.3269 5.86274 26.1896 13.0948 26.1896Z" fill="#FF48A4"/>
<path d="M5.42121 14.1618C5.29323 14.1254 5.1582 14.1215 5.02834 14.1505C4.89848 14.1795 4.7779 14.2404 4.67751 14.3277C4.57712 14.415 4.5001 14.526 4.45343 14.6506C4.40675 14.7752 4.39189 14.9094 4.41019 15.0412C5.00179 19.3095 8.66457 22.5939 13.0948 22.5939C17.5251 22.5939 21.1878 19.3095 21.7799 15.0412C21.798 14.9094 21.783 14.7751 21.7363 14.6506C21.6895 14.526 21.6124 14.4151 21.5119 14.3278C21.4115 14.2405 21.2908 14.1797 21.1609 14.1508C21.0311 14.1219 20.896 14.1258 20.768 14.1622C15.7524 15.5923 10.4369 15.5923 5.42121 14.1622V14.1618Z" fill="white"/>
</g>
<defs>
<clipPath id="clip0_1882_2549">
<rect width="26.19" height="26.19" fill="white"/>
</clipPath>
</defs>
</svg>
