<svg width="44" height="44" viewBox="0 0 44 44" fill="none" xmlns="http://www.w3.org/2000/svg">
<rect width="44" height="44" rx="22" fill="#FFE6F2" fill-opacity="0.25"/>
<path d="M31.75 22C31.7516 23.2801 31.5006 24.548 31.0114 25.7309C30.5221 26.9138 29.8042 27.9885 28.8988 28.8935C27.993 29.7995 26.9174 30.5182 25.7337 31.0083C24.55 31.4984 23.2813 31.7505 22.0001 31.75C20.6212 31.753 19.2575 31.462 18 30.8962L13.924 31.4991C13.7216 31.5322 13.5142 31.5153 13.3198 31.45C13.1255 31.3847 12.95 31.2729 12.8086 31.1244C12.6672 30.9758 12.5643 30.795 12.5086 30.5976C12.453 30.4003 12.4464 30.1923 12.4894 29.9918L13.0554 25.8568C12.517 24.6427 12.2425 23.3281 12.2502 22C12.2485 20.7199 12.4995 19.452 12.9888 18.2691C13.4781 17.0862 14.196 16.0114 15.1013 15.1065C16.0072 14.2004 17.0827 13.4818 18.2664 12.9917C19.4502 12.5015 20.7189 12.2495 22.0001 12.25C24.5874 12.2502 27.0687 13.2776 28.8988 15.1065C29.8037 16.0118 30.5213 17.0866 31.0106 18.2694C31.4998 19.4523 31.7511 20.72 31.75 22Z" stroke="#FF48A4" stroke-width="1.2" stroke-linecap="round" stroke-linejoin="round"/>
</svg>
