<svg width="37" height="37" viewBox="0 0 37 37" fill="none" xmlns="http://www.w3.org/2000/svg">
<path d="M14.6667 32.538V26.4C14.6667 24.0478 16.4908 22.198 19.1895 21.142C17.4489 20.4954 15.6068 20.1651 13.75 20.1667C10.285 20.1667 7.084 21.2978 4.49717 23.21C5.29968 25.4782 6.64655 27.5148 8.41962 29.1412C10.1927 30.7675 12.3378 31.9339 14.6667 32.538ZM30.9467 25.8243C30.2225 24.8472 27.8117 23.8333 24.75 23.8333C21.0723 23.8333 18.3333 25.2945 18.3333 26.4V33C20.8776 33.0007 23.3782 32.3395 25.5896 31.0815C27.8011 29.8234 29.6472 28.0117 30.9467 25.8243ZM13.8417 17.4167C14.9357 17.4167 15.9849 16.9821 16.7585 16.2085C17.5321 15.4349 17.9667 14.3857 17.9667 13.2917C17.9667 12.1976 17.5321 11.1484 16.7585 10.3749C15.9849 9.60126 14.9357 9.16667 13.8417 9.16667C12.7476 9.16667 11.6984 9.60126 10.9249 10.3749C10.1513 11.1484 9.71667 12.1976 9.71667 13.2917C9.71667 14.3857 10.1513 15.4349 10.9249 16.2085C11.6984 16.9821 12.7476 17.4167 13.8417 17.4167ZM24.75 19.25C25.7225 19.25 26.6551 18.8637 27.3427 18.1761C28.0304 17.4884 28.4167 16.5558 28.4167 15.5833C28.4167 14.6109 28.0304 13.6782 27.3427 12.9906C26.6551 12.303 25.7225 11.9167 24.75 11.9167C23.7775 11.9167 22.8449 12.303 22.1573 12.9906C21.4696 13.6782 21.0833 14.6109 21.0833 15.5833C21.0833 16.5558 21.4696 17.4884 22.1573 18.1761C22.8449 18.8637 23.7775 19.25 24.75 19.25ZM18.3333 36.6667C8.20783 36.6667 0 28.4588 0 18.3333C0 8.20783 8.20783 0 18.3333 0C28.4588 0 36.6667 8.20783 36.6667 18.3333C36.6667 28.4588 28.4588 36.6667 18.3333 36.6667Z" fill="#FF48A4"/>
</svg>
