<svg width="37" height="37" viewBox="0 0 37 37" fill="none" xmlns="http://www.w3.org/2000/svg">
<mask id="path-1-inside-1_405_607" fill="white">
<path d="M13.8417 17.4167C12.7476 17.4167 11.6984 16.9821 10.9249 16.2085C10.1513 15.4349 9.71667 14.3857 9.71667 13.2917C9.71667 12.1976 10.1513 11.1484 10.9249 10.3749C11.6984 9.60126 12.7476 9.16667 13.8417 9.16667C14.9357 9.16667 15.9849 9.60126 16.7585 10.3749C17.5321 11.1484 17.9667 12.1976 17.9667 13.2917C17.9667 14.3857 17.5321 15.4349 16.7585 16.2085C15.9849 16.9821 14.9357 17.4167 13.8417 17.4167ZM14.6667 32.538V26.4C14.6667 25.5053 14.9307 24.6822 15.4073 23.947C13.7732 23.7142 12.1085 23.825 10.5196 24.2723C8.93078 24.7196 7.45278 25.4936 6.18017 26.5448C8.18266 29.5118 11.201 31.6441 14.6667 32.5398M4.49717 23.21C7.17461 21.2283 10.4189 20.1612 13.75 20.1667C15.6068 20.1651 17.4489 20.4954 19.1895 21.142C20.7992 20.515 22.7187 20.1667 24.75 20.1667C27.7933 20.1667 30.5892 20.944 32.461 22.286C33.0798 20.0674 33.1674 17.7343 32.7168 15.4756C32.2661 13.2168 31.2897 11.096 29.8669 9.2848C28.444 7.47361 26.6145 6.023 24.5267 5.05044C22.4388 4.07788 20.1513 3.61071 17.8493 3.68678C15.5472 3.76284 13.2955 4.38 11.2764 5.48826C9.25732 6.59653 7.52762 8.16474 6.2274 10.0659C4.92717 11.9671 4.09299 14.1477 3.79239 16.4313C3.49179 18.7149 3.73323 21.0371 4.49717 23.21ZM30.9448 25.8243C30.2243 24.8472 27.8135 23.8333 24.75 23.8333C21.0723 23.8333 18.3333 25.2945 18.3333 26.4V33C20.8776 33.0007 23.3782 32.3395 25.5896 31.0815C27.8011 29.8234 29.6454 28.0117 30.9448 25.8243ZM18.3333 36.6667C8.20783 36.6667 0 28.4588 0 18.3333C0 8.20783 8.20783 0 18.3333 0C28.4588 0 36.6667 8.20783 36.6667 18.3333C36.6667 28.4588 28.4588 36.6667 18.3333 36.6667ZM24.75 19.25C23.7775 19.25 22.8449 18.8637 22.1573 18.1761C21.4696 17.4884 21.0833 16.5558 21.0833 15.5833C21.0833 14.6109 21.4696 13.6782 22.1573 12.9906C22.8449 12.303 23.7775 11.9167 24.75 11.9167C25.7225 11.9167 26.6551 12.303 27.3427 12.9906C28.0304 13.6782 28.4167 14.6109 28.4167 15.5833C28.4167 16.5558 28.0304 17.4884 27.3427 18.1761C26.6551 18.8637 25.7225 19.25 24.75 19.25Z"/>
</mask>
<path d="M13.8417 17.4167C12.7476 17.4167 11.6984 16.9821 10.9249 16.2085C10.1513 15.4349 9.71667 14.3857 9.71667 13.2917C9.71667 12.1976 10.1513 11.1484 10.9249 10.3749C11.6984 9.60126 12.7476 9.16667 13.8417 9.16667C14.9357 9.16667 15.9849 9.60126 16.7585 10.3749C17.5321 11.1484 17.9667 12.1976 17.9667 13.2917C17.9667 14.3857 17.5321 15.4349 16.7585 16.2085C15.9849 16.9821 14.9357 17.4167 13.8417 17.4167ZM14.6667 32.538V26.4C14.6667 25.5053 14.9307 24.6822 15.4073 23.947C13.7732 23.7142 12.1085 23.825 10.5196 24.2723C8.93078 24.7196 7.45278 25.4936 6.18017 26.5448C8.18266 29.5118 11.201 31.6441 14.6667 32.5398M4.49717 23.21C7.17461 21.2283 10.4189 20.1612 13.75 20.1667C15.6068 20.1651 17.4489 20.4954 19.1895 21.142C20.7992 20.515 22.7187 20.1667 24.75 20.1667C27.7933 20.1667 30.5892 20.944 32.461 22.286C33.0798 20.0674 33.1674 17.7343 32.7168 15.4756C32.2661 13.2168 31.2897 11.096 29.8669 9.2848C28.444 7.47361 26.6145 6.023 24.5267 5.05044C22.4388 4.07788 20.1513 3.61071 17.8493 3.68678C15.5472 3.76284 13.2955 4.38 11.2764 5.48826C9.25732 6.59653 7.52762 8.16474 6.2274 10.0659C4.92717 11.9671 4.09299 14.1477 3.79239 16.4313C3.49179 18.7149 3.73323 21.0371 4.49717 23.21ZM30.9448 25.8243C30.2243 24.8472 27.8135 23.8333 24.75 23.8333C21.0723 23.8333 18.3333 25.2945 18.3333 26.4V33C20.8776 33.0007 23.3782 32.3395 25.5896 31.0815C27.8011 29.8234 29.6454 28.0117 30.9448 25.8243ZM18.3333 36.6667C8.20783 36.6667 0 28.4588 0 18.3333C0 8.20783 8.20783 0 18.3333 0C28.4588 0 36.6667 8.20783 36.6667 18.3333C36.6667 28.4588 28.4588 36.6667 18.3333 36.6667ZM24.75 19.25C23.7775 19.25 22.8449 18.8637 22.1573 18.1761C21.4696 17.4884 21.0833 16.5558 21.0833 15.5833C21.0833 14.6109 21.4696 13.6782 22.1573 12.9906C22.8449 12.303 23.7775 11.9167 24.75 11.9167C25.7225 11.9167 26.6551 12.303 27.3427 12.9906C28.0304 13.6782 28.4167 14.6109 28.4167 15.5833C28.4167 16.5558 28.0304 17.4884 27.3427 18.1761C26.6551 18.8637 25.7225 19.25 24.75 19.25Z" fill="#D9D9D9"/>
<path d="M13.8417 9.16667V8.56667V9.16667ZM14.0667 32.538C14.0667 32.8694 14.3353 33.138 14.6667 33.138C14.998 33.138 15.2667 32.8694 15.2667 32.538H14.6667H14.0667ZM15.4073 23.947L15.9108 24.2734L16.4217 23.4855L15.492 23.353L15.4073 23.947ZM6.18017 26.5448L5.79806 26.0822L5.37817 26.4291L5.68284 26.8805L6.18017 26.5448ZM14.5165 33.1207C14.8373 33.2037 15.1646 33.0108 15.2476 32.69C15.3305 32.3692 15.1376 32.0419 14.8168 31.9589L14.6667 32.5398L14.5165 33.1207ZM4.49717 23.21L3.93113 23.409L4.20074 24.1759L4.85412 23.6923L4.49717 23.21ZM13.75 20.1667L13.749 20.7667L13.7505 20.7667L13.75 20.1667ZM19.1895 21.142L18.9806 21.7044L19.1946 21.7839L19.4073 21.7011L19.1895 21.142ZM32.461 22.286L32.1114 22.7736L32.8085 23.2734L33.0389 22.4472L32.461 22.286ZM30.9448 25.8243L31.4607 26.1308L31.664 25.7886L31.4278 25.4683L30.9448 25.8243ZM18.3333 33H17.7333V33.5998L18.3332 33.6L18.3333 33ZM24.75 11.9167V12.5167V11.9167ZM13.8417 17.4167V16.8167C12.9068 16.8167 12.0102 16.4453 11.3491 15.7842L10.9249 16.2085L10.5006 16.6327C11.3867 17.5189 12.5885 18.0167 13.8417 18.0167V17.4167ZM10.9249 16.2085L11.3491 15.7842C10.688 15.1232 10.3167 14.2266 10.3167 13.2917H9.71667H9.11667C9.11667 14.5448 9.61448 15.7466 10.5006 16.6327L10.9249 16.2085ZM9.71667 13.2917H10.3167C10.3167 12.3568 10.688 11.4602 11.3491 10.7991L10.9249 10.3749L10.5006 9.95059C9.61448 10.8367 9.11667 12.0385 9.11667 13.2917H9.71667ZM10.9249 10.3749L11.3491 10.7991C12.0102 10.1381 12.9068 9.76667 13.8417 9.76667V9.16667V8.56667C12.5885 8.56667 11.3867 9.06448 10.5006 9.95059L10.9249 10.3749ZM13.8417 9.16667V9.76667C14.7766 9.76667 15.6732 10.1381 16.3342 10.7991L16.7585 10.3749L17.1827 9.95059C16.2966 9.06448 15.0948 8.56667 13.8417 8.56667V9.16667ZM16.7585 10.3749L16.3342 10.7991C16.9953 11.4602 17.3667 12.3568 17.3667 13.2917H17.9667H18.5667C18.5667 12.0385 18.0689 10.8367 17.1827 9.95059L16.7585 10.3749ZM17.9667 13.2917H17.3667C17.3667 14.2266 16.9953 15.1232 16.3342 15.7842L16.7585 16.2085L17.1827 16.6327C18.0689 15.7466 18.5667 14.5448 18.5667 13.2917H17.9667ZM16.7585 16.2085L16.3342 15.7842C15.6732 16.4453 14.7766 16.8167 13.8417 16.8167V17.4167V18.0167C15.0948 18.0167 16.2966 17.5189 17.1827 16.6327L16.7585 16.2085ZM14.6667 32.538H15.2667V26.4H14.6667H14.0667V32.538H14.6667ZM14.6667 26.4H15.2667C15.2667 25.6293 15.4925 24.9185 15.9108 24.2734L15.4073 23.947L14.9039 23.6206C14.3688 24.4459 14.0667 25.3813 14.0667 26.4H14.6667ZM15.4073 23.947L15.492 23.353C13.7752 23.1084 12.0263 23.2248 10.357 23.6948L10.5196 24.2723L10.6822 24.8498C12.1907 24.4251 13.7712 24.32 15.3227 24.541L15.4073 23.947ZM10.5196 24.2723L10.357 23.6948C8.68781 24.1647 7.13505 24.9779 5.79806 26.0822L6.18017 26.5448L6.56227 27.0074C7.77052 26.0094 9.17376 25.2745 10.6822 24.8498L10.5196 24.2723ZM6.18017 26.5448L5.68284 26.8805C7.76725 29.9688 10.9091 32.1883 14.5165 33.1207L14.6667 32.5398L14.8168 31.9589C11.493 31.0998 8.59806 29.0548 6.67749 26.2092L6.18017 26.5448ZM4.49717 23.21L4.85412 23.6923C7.42799 21.7872 10.5468 20.7614 13.749 20.7667L13.75 20.1667L13.751 19.5667C10.2911 19.561 6.92124 20.6693 4.14021 22.7277L4.49717 23.21ZM13.75 20.1667L13.7505 20.7667C15.5358 20.7652 17.307 21.0828 18.9806 21.7044L19.1895 21.142L19.3984 20.5796C17.5908 19.9081 15.6778 19.5651 13.7495 19.5667L13.75 20.1667ZM19.1895 21.142L19.4073 21.7011C20.9397 21.1042 22.7843 20.7667 24.75 20.7667V20.1667V19.5667C22.653 19.5667 20.6586 19.9258 18.9717 20.5829L19.1895 21.142ZM24.75 20.1667V20.7667C27.7055 20.7667 30.3683 21.5239 32.1114 22.7736L32.461 22.286L32.8106 21.7984C30.81 20.3641 27.8812 19.5667 24.75 19.5667V20.1667ZM32.461 22.286L33.0389 22.4472C33.6831 20.1379 33.7743 17.7093 33.3052 15.3582L32.7168 15.4756L32.1284 15.593C32.5606 17.7593 32.4766 19.997 31.8831 22.1248L32.461 22.286ZM32.7168 15.4756L33.3052 15.3582C32.836 13.007 31.8198 10.7994 30.3387 8.91414L29.8669 9.2848L29.395 9.65546C30.7597 11.3926 31.6961 13.4266 32.1284 15.593L32.7168 15.4756ZM29.8669 9.2848L30.3387 8.91414C28.8576 7.02885 26.9533 5.5189 24.78 4.50655L24.5267 5.05044L24.2733 5.59432C26.2758 6.5271 28.0304 7.91837 29.395 9.65546L29.8669 9.2848ZM24.5267 5.05044L24.78 4.50655C22.6068 3.4942 20.2256 3.00793 17.8294 3.0871L17.8493 3.68678L17.8691 4.28645C20.0769 4.2135 22.2709 4.66155 24.2733 5.59432L24.5267 5.05044ZM17.8493 3.68678L17.8294 3.0871C15.4333 3.16628 13.0894 3.80868 10.9877 4.96229L11.2764 5.48826L11.5651 6.01424C13.5016 4.95131 15.6612 4.3594 17.8691 4.28645L17.8493 3.68678ZM11.2764 5.48826L10.9877 4.96229C8.88602 6.11589 7.08555 7.74826 5.73214 9.7272L6.2274 10.0659L6.72265 10.4046C7.96968 8.58123 9.62862 7.07716 11.5651 6.01424L11.2764 5.48826ZM6.2274 10.0659L5.73214 9.7272C4.37873 11.7061 3.51041 13.976 3.19752 16.353L3.79239 16.4313L4.38726 16.5096C4.67556 14.3195 5.47562 12.228 6.72265 10.4046L6.2274 10.0659ZM3.79239 16.4313L3.19752 16.353C2.88463 18.73 3.13595 21.1472 3.93113 23.409L4.49717 23.21L5.0632 23.011C4.33052 20.927 4.09896 18.6997 4.38726 16.5096L3.79239 16.4313ZM30.9448 25.8243L31.4278 25.4683C30.9609 24.8351 30.0412 24.2861 28.9238 23.8959C27.7813 23.497 26.3455 23.2333 24.75 23.2333V23.8333V24.4333C26.218 24.4333 27.5194 24.6766 28.5283 25.0289C29.5623 25.3899 30.2083 25.8364 30.4619 26.1804L30.9448 25.8243ZM24.75 23.8333V23.2333C22.8368 23.2333 21.1492 23.6126 19.9209 24.1529C19.3088 24.4222 18.7881 24.7414 18.41 25.0933C18.0466 25.4315 17.7333 25.8784 17.7333 26.4H18.3333H18.9333C18.9333 26.3688 18.9624 26.2185 19.2275 25.9718C19.4779 25.7388 19.8718 25.4855 20.4042 25.2513C21.4648 24.7847 22.9856 24.4333 24.75 24.4333V23.8333ZM18.3333 26.4H17.7333V33H18.3333H18.9333V26.4H18.3333ZM18.3333 33L18.3332 33.6C20.9815 33.6007 23.5844 32.9125 25.8863 31.603L25.5896 31.0815L25.293 30.5599C23.172 31.7665 20.7736 32.4007 18.3335 32.4L18.3333 33ZM25.5896 31.0815L25.8863 31.603C28.1884 30.2933 30.1082 28.4074 31.4607 26.1308L30.9448 25.8243L30.429 25.5179C29.1826 27.6159 27.4137 29.3534 25.293 30.5599L25.5896 31.0815ZM18.3333 36.6667V36.0667C8.5392 36.0667 0.6 28.1275 0.6 18.3333H0H-0.6C-0.6 28.7902 7.87646 37.2667 18.3333 37.2667V36.6667ZM0 18.3333H0.6C0.6 8.5392 8.5392 0.6 18.3333 0.6V0V-0.6C7.87646 -0.6 -0.6 7.87646 -0.6 18.3333H0ZM18.3333 0V0.6C28.1275 0.6 36.0667 8.5392 36.0667 18.3333H36.6667H37.2667C37.2667 7.87646 28.7902 -0.6 18.3333 -0.6V0ZM36.6667 18.3333H36.0667C36.0667 28.1275 28.1275 36.0667 18.3333 36.0667V36.6667V37.2667C28.7902 37.2667 37.2667 28.7902 37.2667 18.3333H36.6667ZM24.75 19.25V18.65C23.9367 18.65 23.1567 18.3269 22.5815 17.7518L22.1573 18.1761L21.733 18.6003C22.5332 19.4005 23.6184 19.85 24.75 19.85V19.25ZM22.1573 18.1761L22.5815 17.7518C22.0064 17.1767 21.6833 16.3967 21.6833 15.5833H21.0833H20.4833C20.4833 16.7149 20.9329 17.8002 21.733 18.6003L22.1573 18.1761ZM21.0833 15.5833H21.6833C21.6833 14.77 22.0064 13.99 22.5815 13.4149L22.1573 12.9906L21.733 12.5663C20.9329 13.3665 20.4833 14.4517 20.4833 15.5833H21.0833ZM22.1573 12.9906L22.5815 13.4149C23.1567 12.8398 23.9367 12.5167 24.75 12.5167V11.9167V11.3167C23.6184 11.3167 22.5332 11.7662 21.733 12.5663L22.1573 12.9906ZM24.75 11.9167V12.5167C25.5633 12.5167 26.3433 12.8398 26.9185 13.4149L27.3427 12.9906L27.767 12.5663C26.9668 11.7662 25.8816 11.3167 24.75 11.3167V11.9167ZM27.3427 12.9906L26.9185 13.4149C27.4936 13.99 27.8167 14.77 27.8167 15.5833H28.4167H29.0167C29.0167 14.4517 28.5671 13.3665 27.767 12.5663L27.3427 12.9906ZM28.4167 15.5833H27.8167C27.8167 16.3967 27.4936 17.1767 26.9185 17.7518L27.3427 18.1761L27.767 18.6003C28.5671 17.8002 29.0167 16.7149 29.0167 15.5833H28.4167ZM27.3427 18.1761L26.9185 17.7518C26.3433 18.3269 25.5633 18.65 24.75 18.65V19.25V19.85C25.8816 19.85 26.9668 19.4005 27.767 18.6003L27.3427 18.1761Z" fill="white" mask="url(#path-1-inside-1_405_607)"/>
</svg>
