<svg width="56" height="56" viewBox="0 0 56 56" fill="none" xmlns="http://www.w3.org/2000/svg">
<path d="M12 30.9339H44.6909C44.6909 32.6497 44.3529 34.3488 43.6963 35.9341C43.0397 37.5193 42.0772 38.9597 40.8639 40.173C39.6506 41.3863 38.2102 42.3488 36.625 43.0054C35.0397 43.662 33.3407 44 31.6248 44H25.0832C23.3659 44.0022 21.665 43.6659 20.0778 43.0103C18.4905 42.3547 17.0481 41.3926 15.833 40.1791C14.6179 38.9655 13.6539 37.5244 12.9962 35.938C12.3385 34.3516 12 32.6512 12 30.9339Z" stroke="#FF48A4" stroke-width="1.5" stroke-miterlimit="10"/>
<path d="M20.1812 13C20.1812 14.8959 18.4733 14.8959 18.4733 16.8088C18.4733 18.7218 20.1812 18.7218 20.1812 20.6176C20.1812 22.5135 18.4733 22.5306 18.4733 24.4435" stroke="#FF48A4" stroke-width="1.5" stroke-miterlimit="10"/>
<path d="M30.0534 14.6397C30.0534 16.5356 28.3454 16.5356 28.3454 18.4485C28.3454 20.3614 30.0534 20.3444 30.0534 22.2573C30.0534 24.1703 28.3454 24.1019 28.3454 26.0661" stroke="#FF48A4" stroke-width="1.5" stroke-miterlimit="10"/>
<path d="M39.789 13C39.789 14.8959 38.081 14.8959 38.081 16.8088C38.081 18.7218 39.789 18.7218 39.789 20.6176C39.789 22.5135 38.081 22.5306 38.081 24.4435" stroke="#FF48A4" stroke-width="1.5" stroke-miterlimit="10"/>
</svg>
