<svg width="27" height="27" viewBox="0 0 27 27" fill="none" xmlns="http://www.w3.org/2000/svg">
<path d="M13.25 14.75C14.0784 14.75 14.75 14.0784 14.75 13.25C14.75 12.4216 14.0784 11.75 13.25 11.75C12.4216 11.75 11.75 12.4216 11.75 13.25C11.75 14.0784 12.4216 14.75 13.25 14.75Z" stroke="#FF48A4" stroke-width="0.5" stroke-linecap="round" stroke-linejoin="round"/>
<path d="M13.25 19.75C13.25 21.0356 12.8688 22.2923 12.1546 23.3612C11.4403 24.4301 10.4252 25.2632 9.23744 25.7552C8.04972 26.2472 6.74279 26.3759 5.48191 26.1251C4.22104 25.8743 3.06285 25.2552 2.15381 24.3462C1.24477 23.4372 0.625702 22.279 0.374899 21.0181C0.124095 19.7572 0.252816 18.4503 0.744786 17.2626C1.23676 16.0748 2.06988 15.0597 3.1388 14.3454C4.20771 13.6312 5.46442 13.25 6.75 13.25M13.25 19.75C13.25 21.0356 13.6312 22.2923 14.3454 23.3612C15.0597 24.4301 16.0748 25.2632 17.2626 25.7552C18.4503 26.2472 19.7572 26.3759 21.0181 26.1251C22.279 25.8743 23.4372 25.2552 24.3462 24.3462C25.2552 23.4372 25.8743 22.279 26.1251 21.0181C26.3759 19.7572 26.2472 18.4503 25.7552 17.2626C25.2632 16.0748 24.4301 15.0597 23.3612 14.3454C22.2923 13.6312 21.0356 13.25 19.75 13.25M13.25 19.75V17.5833M6.75 13.25C5.46442 13.25 4.20771 12.8688 3.1388 12.1546C2.06988 11.4403 1.23676 10.4252 0.744786 9.23744C0.252816 8.04972 0.124095 6.74279 0.374899 5.48191C0.625702 4.22104 1.24477 3.06285 2.15381 2.15381C3.06285 1.24477 4.22104 0.625702 5.48191 0.374899C6.74279 0.124095 8.04972 0.252816 9.23744 0.744786C10.4252 1.23676 11.4403 2.06988 12.1546 3.1388C12.8688 4.20771 13.25 5.46442 13.25 6.75M6.75 13.25H8.91667M13.25 6.75C13.25 5.46442 13.6312 4.20771 14.3454 3.1388C15.0597 2.06988 16.0748 1.23676 17.2626 0.744786C18.4503 0.252816 19.7572 0.124095 21.0181 0.374899C22.279 0.625702 23.4372 1.24477 24.3462 2.15381C25.2552 3.06285 25.8743 4.22104 26.1251 5.48191C26.3759 6.74279 26.2472 8.04972 25.7552 9.23744C25.2632 10.4252 24.4301 11.4403 23.3612 12.1546C22.2923 12.8688 21.0356 13.25 19.75 13.25M13.25 6.75V8.91667M19.75 13.25H17.5833M7.47222 7.47222L10.1878 10.1878M16.3122 10.1878L19.0278 7.47222M7.47222 19.0278L10.1878 16.3122M16.3122 16.3122L19.0278 19.0278" stroke="#FF48A4" stroke-width="0.5" stroke-linecap="round" stroke-linejoin="round"/>
</svg>
