<svg width="32" height="35" viewBox="0 0 32 35" fill="none" xmlns="http://www.w3.org/2000/svg">
<path d="M9.1489 12.1073L22.1802 22.3774M3.2803 19.5538L15.0175 4.66091C16.3794 2.93286 18.372 1.81659 20.5569 1.55768C22.7418 1.29876 24.9401 1.91841 26.6682 3.2803C28.3962 4.6422 29.5125 6.63478 29.7714 8.8197C30.0303 11.0046 29.4107 13.2029 28.0488 14.931L16.3116 29.8238C14.9497 31.5519 12.9571 32.6682 10.7722 32.9271C8.58725 33.186 6.38896 32.5663 4.66091 31.2044C2.93285 29.8425 1.81659 27.85 1.55767 25.665C1.29876 23.4801 1.91841 21.2818 3.2803 19.5538Z" stroke="#FF48A4" stroke-width="3" stroke-linecap="round" stroke-linejoin="round"/>
</svg>
