<svg width="52" height="43" viewBox="0 0 52 43" fill="none" xmlns="http://www.w3.org/2000/svg">
<path fill-rule="evenodd" clip-rule="evenodd" d="M28.8734 2C29.8323 2 30.7238 2.21367 31.5181 2.66463C32.1974 3.04864 32.9679 3.58034 33.5381 4.37199L33.5262 4.38183L33.5361 4.39562L35.8486 7.37118L36.6638 8.44936C37.8856 10.0579 38.5463 12.0179 38.546 14.0326C38.5456 16.0473 37.8842 18.007 36.6618 19.6151L32.1914 25.3437L39.0834 34.1503C39.3906 34.5433 39.5367 35.0372 39.4922 35.5328C39.4476 36.0283 39.2159 36.4888 38.8434 36.8216L34.8114 40.4273C34.6094 40.6079 34.3722 40.7454 34.1145 40.8311C33.8568 40.9169 33.5841 40.9491 33.3133 40.9259C33.0425 40.9026 32.7794 40.8243 32.5404 40.6959C32.3013 40.5674 32.0914 40.3916 31.9237 40.1792L26.1821 32.9097L20.3859 40.2462C20.0649 40.6525 19.5959 40.9174 19.0801 40.9837C18.5642 41.05 18.0428 40.9124 17.6281 40.6006L13.2857 37.3346C13.0761 37.1769 12.9001 36.9794 12.7681 36.7536C12.6361 36.5278 12.5506 36.2781 12.5166 36.0192C12.4826 35.7602 12.5009 35.4972 12.5703 35.2453C12.6397 34.9934 12.7588 34.7578 12.9208 34.552L20.1737 25.3378L15.7073 19.7116L15.7014 19.7037C14.4792 18.0957 13.8179 16.1362 13.8176 14.1217C13.8172 12.1072 14.4778 10.1474 15.6994 8.53896L15.7014 8.53699L16.5056 7.47162L18.8231 4.48916L18.9302 4.35032C20.0319 2.83694 21.8615 2 23.6712 2H28.8734ZM30.5344 4.37395C31.0808 4.68411 31.5459 5.02381 31.8711 5.44524L31.8563 5.45607L31.9554 5.58407C32.4608 6.26931 32.7315 7.09749 32.7276 7.94683C32.7236 8.79616 32.4453 9.62184 31.9336 10.3024C31.0074 9.7412 29.9057 9.39362 28.7832 9.39362H23.58C22.4664 9.39362 21.3319 9.68901 20.3661 10.3034C19.8927 9.61731 19.6387 8.80543 19.6372 7.97378C19.6372 7.1713 19.8911 6.36686 20.4037 5.6786L20.5178 5.5309L20.5277 5.51712C21.2238 4.5502 22.4376 3.96927 23.6702 3.96927H28.8744C29.5289 3.96927 30.0733 4.11204 30.5344 4.37395ZM21.5858 11.8729L26.1474 17.7236L30.7089 11.8729C30.1159 11.5529 29.4416 11.3629 28.7851 11.3629H23.581C22.867 11.3629 22.1728 11.5391 21.5858 11.8729ZM30.9291 23.7476L27.4068 19.3266L33.4221 11.611C34.0279 10.8557 34.4364 9.96344 34.6111 9.01356L35.0821 9.63683C36.0425 10.9023 36.5622 12.4437 36.5628 14.0283C36.5633 15.6129 36.0446 17.1546 35.0851 18.4208L30.9291 23.7476ZM21.439 26.93L14.4846 35.7651L18.826 39.0311L24.9207 31.3155L21.439 26.93ZM18.9431 11.7006C18.342 10.9395 17.9364 10.0447 17.761 9.09331L17.286 9.72249L17.283 9.72643C16.3229 10.9914 15.8031 12.5321 15.8022 14.1161C15.8014 15.7001 16.3194 17.2414 17.2781 18.5074L26.9625 30.707L33.4855 38.9642L37.5176 35.3585L30.1596 25.9552L25.4046 19.9883L18.9431 11.7006Z" fill="#D9D9D9"/>
</svg>
