<svg width="51" height="43" viewBox="0 0 51 43" fill="none" xmlns="http://www.w3.org/2000/svg">
<path d="M43 15.2885C43.0014 16.4423 42.7755 17.5851 42.3355 18.651C41.8955 19.7169 41.25 20.685 40.4361 21.4995L37.8761 24.074L25.5014 36.5L13.1268 24.074L10.5629 21.4995C9.75035 20.6836 9.10581 19.715 8.66607 18.6489C8.22633 17.5829 8 16.4404 8 15.2865C8 14.1326 8.22633 12.9901 8.66607 11.924C9.10581 10.858 9.75035 9.8894 10.5629 9.0735C11.3754 8.2576 12.34 7.61039 13.4016 7.16883C14.4633 6.72726 15.6011 6.5 16.7502 6.5C17.8993 6.5 19.0371 6.72726 20.0988 7.16883C21.1604 7.61039 22.125 8.2576 22.9375 9.0735L25.5014 11.648L28.0614 9.0735C29.2858 7.84568 30.8451 7.0098 32.5423 6.67145C34.2396 6.33311 35.9986 6.50748 37.5972 7.17255C39.1958 7.83762 40.5622 8.96353 41.5239 10.4081C42.4855 11.8526 42.9992 13.5509 43 15.2885Z" stroke="#D9D9D9" stroke-width="3.2381" stroke-miterlimit="10"/>
</svg>
