<svg width="30" height="29" viewBox="0 0 30 29" fill="none" xmlns="http://www.w3.org/2000/svg">
<path d="M15 1C15.1938 1 15.3807 1.06222 15.5322 1.17383L28.6572 10.8398C28.7657 10.9198 28.8522 11.0229 28.9111 11.1387C28.9699 11.2542 29 11.3805 29 11.5078V27.1592C28.9999 27.3762 28.912 27.588 28.75 27.7471C28.5872 27.9069 28.3629 28 28.125 28H20.625C20.3871 28 20.1628 27.9069 20 27.7471C19.838 27.588 19.7501 27.3762 19.75 27.1592V21.6348C19.75 20.8754 19.4425 20.1505 18.9014 19.6191C18.3609 19.0885 17.6316 18.7939 16.875 18.7939H13.125C12.3684 18.7939 11.6391 19.0885 11.0986 19.6191C10.5575 20.1505 10.25 20.8754 10.25 21.6348V27.1592C10.2499 27.3762 10.162 27.588 10 27.7471C9.83725 27.9069 9.61286 28 9.375 28H1.875C1.63714 28 1.41275 27.9069 1.25 27.7471C1.08797 27.588 1.00012 27.3762 1 27.1592V11.5078L1.00586 11.4131C1.01706 11.3183 1.04476 11.2254 1.08887 11.1387C1.1478 11.0229 1.23426 10.9198 1.34277 10.8398L14.4678 1.17383C14.6193 1.06222 14.8062 1 15 1Z" stroke="#D9D9D9" stroke-width="2" stroke-linecap="round" stroke-linejoin="round"/>
</svg>
