<svg width="30" height="29" viewBox="0 0 30 29" fill="none" xmlns="http://www.w3.org/2000/svg">
<path d="M30 27.1587V11.5079C30 11.2221 29.9322 10.9402 29.802 10.6845C29.6719 10.4288 29.4829 10.2064 29.25 10.0349L16.125 0.368254C15.8004 0.129216 15.4057 0 15 0C14.5943 0 14.1996 0.129216 13.875 0.368254L0.75 10.0349C0.517133 10.2064 0.328126 10.4288 0.197949 10.6845C0.0677719 10.9402 0 11.2221 0 11.5079V27.1587C0 27.6471 0.197544 28.1154 0.549175 28.4607C0.900806 28.806 1.37772 29 1.875 29H9.375C9.87228 29 10.3492 28.806 10.7008 28.4607C11.0525 28.1154 11.25 27.6471 11.25 27.1587V21.6349C11.25 21.1466 11.4475 20.6783 11.7992 20.3329C12.1508 19.9876 12.6277 19.7937 13.125 19.7937H16.875C17.3723 19.7937 17.8492 19.9876 18.2008 20.3329C18.5525 20.6783 18.75 21.1466 18.75 21.6349V27.1587C18.75 27.6471 18.9475 28.1154 19.2992 28.4607C19.6508 28.806 20.1277 29 20.625 29H28.125C28.6223 29 29.0992 28.806 29.4508 28.4607C29.8025 28.1154 30 27.6471 30 27.1587Z" fill="#FF48A4"/>
</svg>
