<svg width="110" height="87" viewBox="0 0 110 87" fill="none" xmlns="http://www.w3.org/2000/svg">
<path d="M105.338 45.0497C84.74 50.8879 79.2663 56.4166 73.4841 77.2336C73.4349 77.4087 73.3305 77.5628 73.1867 77.6726C73.043 77.7823 72.8677 77.8417 72.6875 77.8417C72.5073 77.8417 72.332 77.7823 72.1883 77.6726C72.0445 77.5628 71.9401 77.4087 71.8909 77.2336C66.1107 56.4268 60.637 50.8982 40.037 45.06C39.864 45.0096 39.7119 44.9038 39.6036 44.7584C39.4954 44.6131 39.4368 44.4362 39.4368 44.2543C39.4368 44.0725 39.4954 43.8955 39.6036 43.7502C39.7119 43.6049 39.864 43.4991 40.037 43.4487C60.637 37.6105 66.1107 32.0818 71.9011 11.275C71.9502 11.0999 72.0546 10.9458 72.1984 10.8361C72.3422 10.7264 72.5174 10.667 72.6976 10.667C72.8778 10.667 73.0531 10.7264 73.1969 10.8361C73.3406 10.9458 73.4451 11.0999 73.4943 11.275C79.2765 32.0818 84.7502 37.6105 105.358 43.459C105.524 43.5157 105.667 43.6239 105.768 43.7681C105.869 43.9124 105.923 44.0852 105.92 44.2618C105.918 44.4384 105.86 44.6097 105.756 44.7513C105.651 44.8928 105.505 44.9973 105.338 45.0497Z" fill="url(#paint0_linear_2008_3127)"/>
<path d="M41.2785 25.8035C29.8093 29.0165 26.7613 32.0604 23.544 43.5142C23.5173 43.6112 23.4593 43.6969 23.3791 43.7579C23.2989 43.8189 23.2009 43.852 23.1 43.852C22.9992 43.852 22.9012 43.8189 22.821 43.7579C22.7408 43.6969 22.6828 43.6112 22.6561 43.5142C19.4388 32.0604 16.3908 29.0165 4.92164 25.8035C4.82442 25.7767 4.73868 25.7189 4.67757 25.6388C4.61647 25.5587 4.58337 25.4608 4.58337 25.3601C4.58337 25.2594 4.61647 25.1615 4.67757 25.0814C4.73868 25.0013 4.82442 24.9434 4.92164 24.9167C16.3908 21.7016 19.4388 18.6577 22.6561 7.20598C22.6828 7.10889 22.7408 7.02326 22.821 6.96224C22.9012 6.90121 22.9992 6.86816 23.1 6.86816C23.2009 6.86816 23.2989 6.90121 23.3791 6.96224C23.4593 7.02326 23.5173 7.10889 23.544 7.20598C26.7717 18.6577 29.8093 21.7016 41.2785 24.9249C41.3724 24.954 41.4545 25.0123 41.5128 25.0914C41.5711 25.1704 41.6026 25.266 41.6026 25.3642C41.6026 25.4624 41.5711 25.558 41.5128 25.637C41.4545 25.7161 41.3724 25.7744 41.2785 25.8035Z" fill="url(#paint1_linear_2008_3127)"/>
<path d="M44.6273 68.4428C37.8416 70.3466 36.0385 72.148 34.1329 78.9272C34.1168 78.9843 34.0824 79.0346 34.035 79.0704C33.9876 79.1063 33.9298 79.1257 33.8703 79.1257C33.8109 79.1257 33.7531 79.1063 33.7057 79.0704C33.6583 79.0346 33.6239 78.9843 33.6078 78.9272C31.7042 72.148 29.9011 70.3466 23.1154 68.4428C23.0582 68.4266 23.0078 68.3923 22.972 68.345C22.9361 68.2976 22.9167 68.2398 22.9167 68.1805C22.9167 68.1211 22.9361 68.0633 22.972 68.016C23.0078 67.9686 23.0582 67.9343 23.1154 67.9181C29.9011 66.0164 31.7042 64.215 33.6078 57.4358C33.6239 57.3787 33.6583 57.3284 33.7057 57.2925C33.7531 57.2567 33.8109 57.2373 33.8703 57.2373C33.9298 57.2373 33.9876 57.2567 34.035 57.2925C34.0824 57.3284 34.1168 57.3787 34.1329 57.4358C36.0385 64.215 37.8416 66.0164 44.6273 67.9181C44.6845 67.9343 44.7349 67.9686 44.7707 68.016C44.8066 68.0633 44.826 68.1211 44.826 68.1805C44.826 68.2398 44.8066 68.2976 44.7707 68.345C44.7349 68.3923 44.6845 68.4266 44.6273 68.4428Z" fill="url(#paint2_linear_2008_3127)"/>
<defs>
<linearGradient id="paint0_linear_2008_3127" x1="107.093" y1="14.9239" x2="-16.2194" y2="72.5761" gradientUnits="userSpaceOnUse">
<stop stop-color="white"/>
<stop offset="0.3125" stop-color="#FF48A4"/>
<stop offset="1" stop-color="#2D69E2"/>
</linearGradient>
<linearGradient id="paint1_linear_2008_3127" x1="42.2558" y1="9.21184" x2="-26.1266" y2="41.5459" gradientUnits="userSpaceOnUse">
<stop stop-color="white"/>
<stop offset="0.3125" stop-color="#FF48A4"/>
<stop offset="1" stop-color="#2D69E2"/>
</linearGradient>
<linearGradient id="paint2_linear_2008_3127" x1="45.2126" y1="58.6244" x2="4.74137" y2="77.7608" gradientUnits="userSpaceOnUse">
<stop stop-color="white"/>
<stop offset="0.3125" stop-color="#FF48A4"/>
<stop offset="1" stop-color="#2D69E2"/>
</linearGradient>
</defs>
</svg>
