<svg width="48" height="38" viewBox="0 0 48 38" fill="none" xmlns="http://www.w3.org/2000/svg">
<path d="M45.9657 19.6771C36.9775 22.2271 34.5889 24.6419 32.0658 33.7344C32.0443 33.8109 31.9988 33.8782 31.936 33.9261C31.8733 33.9741 31.7968 34 31.7182 34C31.6395 34 31.5631 33.9741 31.5003 33.9261C31.4376 33.8782 31.392 33.8109 31.3706 33.7344C28.8483 24.6464 26.4598 22.2316 17.4707 19.6816C17.3952 19.6596 17.3288 19.6133 17.2816 19.5499C17.2343 19.4864 17.2088 19.4091 17.2088 19.3297C17.2088 19.2502 17.2343 19.173 17.2816 19.1095C17.3288 19.046 17.3952 18.9998 17.4707 18.9778C26.4598 16.4278 28.8483 14.013 31.375 4.92492C31.3965 4.84845 31.442 4.78114 31.5047 4.73321C31.5675 4.68528 31.644 4.65935 31.7226 4.65935C31.8012 4.65935 31.8777 4.68528 31.9404 4.73321C32.0032 4.78114 32.0487 4.84845 32.0702 4.92492C34.5934 14.013 36.9819 16.4278 45.9745 18.9823C46.0468 19.0071 46.1094 19.0543 46.1535 19.1173C46.1975 19.1803 46.2207 19.2558 46.2197 19.3329C46.2188 19.4101 46.1936 19.4849 46.148 19.5467C46.1024 19.6086 46.0385 19.6542 45.9657 19.6771Z" stroke="#FF48A4" stroke-miterlimit="10"/>
<path d="M18.0124 11.2706C13.0077 12.674 11.6777 14.0035 10.2737 19.0063C10.2621 19.0487 10.2368 19.0861 10.2018 19.1128C10.1668 19.1394 10.124 19.1538 10.08 19.1538C10.036 19.1538 9.99322 19.1394 9.95822 19.1128C9.92322 19.0861 9.89795 19.0487 9.88627 19.0063C8.48235 14.0035 7.15232 12.674 2.14761 11.2706C2.10518 11.2589 2.06777 11.2336 2.04111 11.1987C2.01444 11.1637 2 11.1209 2 11.0769C2 11.0329 2.01444 10.9902 2.04111 10.9552C2.06777 10.9202 2.10518 10.8949 2.14761 10.8833C7.15232 9.47898 8.48235 8.14946 9.88627 3.14755C9.89795 3.10515 9.92322 3.06775 9.95822 3.04109C9.99322 3.01444 10.036 3 10.08 3C10.124 3 10.1668 3.01444 10.2018 3.04109C10.2368 3.06775 10.2621 3.10515 10.2737 3.14755C11.6822 8.14946 13.0077 9.47898 18.0124 10.8869C18.0534 10.8996 18.0892 10.925 18.1147 10.9596C18.1401 10.9941 18.1538 11.0358 18.1538 11.0787C18.1538 11.1216 18.1401 11.1634 18.1147 11.1979C18.0892 11.2324 18.0534 11.2579 18.0124 11.2706Z" stroke="#FF48A4" stroke-miterlimit="10"/>
<path d="M19.4737 29.8943C16.5127 30.7259 15.7259 31.5127 14.8943 34.4737C14.8873 34.4987 14.8723 34.5207 14.8516 34.5363C14.8309 34.552 14.8057 34.5604 14.7798 34.5604C14.7538 34.5604 14.7286 34.552 14.7079 34.5363C14.6872 34.5207 14.6722 34.4987 14.6652 34.4737C13.8345 31.5127 13.0477 30.7259 10.0867 29.8943C10.0618 29.8873 10.0398 29.8723 10.0241 29.8516C10.0085 29.8309 10 29.8057 10 29.7798C10 29.7538 10.0085 29.7286 10.0241 29.7079C10.0398 29.6872 10.0618 29.6722 10.0867 29.6652C13.0477 28.8345 13.8345 28.0477 14.6652 25.0867C14.6722 25.0618 14.6872 25.0398 14.7079 25.0241C14.7286 25.0085 14.7538 25 14.7798 25C14.8057 25 14.8309 25.0085 14.8516 25.0241C14.8723 25.0398 14.8873 25.0618 14.8943 25.0867C15.7259 28.0477 16.5127 28.8345 19.4737 29.6652C19.4987 29.6722 19.5207 29.6872 19.5363 29.7079C19.552 29.7286 19.5604 29.7538 19.5604 29.7798C19.5604 29.8057 19.552 29.8309 19.5363 29.8516C19.5207 29.8723 19.4987 29.8873 19.4737 29.8943Z" stroke="#FF48A4" stroke-miterlimit="10"/>
</svg>
