<svg width="28" height="32" viewBox="0 0 28 32" fill="none" xmlns="http://www.w3.org/2000/svg">
<path d="M8.52174 14.7692C6.90738 14.7692 5.35913 14.1209 4.21761 12.9668C3.07608 11.8127 2.43478 10.2475 2.43478 8.61538V3.69231C2.43478 3.36589 2.56304 3.05284 2.79135 2.82202C3.01965 2.59121 3.3293 2.46154 3.65217 2.46154H4.86956C5.19244 2.46154 5.50208 2.33187 5.73039 2.10105C5.95869 1.87024 6.08695 1.55719 6.08695 1.23077C6.08695 0.904349 5.95869 0.591298 5.73039 0.360484C5.50208 0.12967 5.19244 0 4.86956 0H3.65217C2.68356 0 1.75461 0.38901 1.0697 1.08145C0.384781 1.77389 0 2.71305 0 3.69231V8.61538C0.00156486 10.0058 0.33694 11.3751 0.977321 12.6056C1.6177 13.8362 2.54395 14.8912 3.67652 15.68C4.76575 16.649 5.64896 17.8315 6.27257 19.1559C6.89618 20.4803 7.2472 21.9189 7.30434 23.3846C7.30434 25.6696 8.20217 27.8609 9.8003 29.4766C11.3984 31.0923 13.566 32 15.8261 32C18.0862 32 20.2537 31.0923 21.8519 29.4766C23.45 27.8609 24.3478 25.6696 24.3478 23.3846V21.9815C25.4954 21.682 26.4955 20.9696 27.1607 19.9778C27.8259 18.9861 28.1105 17.7832 27.9612 16.5945C27.8118 15.4058 27.2388 14.3129 26.3495 13.5208C25.4602 12.7287 24.3156 12.2917 23.1304 12.2917C21.9452 12.2917 20.8007 12.7287 19.9114 13.5208C19.022 14.3129 18.449 15.4058 18.2997 16.5945C18.1503 17.7832 18.4349 18.9861 19.1001 19.9778C19.7653 20.9696 20.7654 21.682 21.913 21.9815V23.3846C21.913 25.0167 21.2717 26.582 20.1302 27.736C18.9887 28.8901 17.4404 29.5385 15.8261 29.5385C14.2117 29.5385 12.6635 28.8901 11.522 27.736C10.3804 26.582 9.73913 25.0167 9.73913 23.3846C9.79935 21.9171 10.1542 20.4774 10.782 19.1528C11.4099 17.8283 12.2976 16.6468 13.3913 15.68C14.5194 14.8884 15.4409 13.8322 16.0769 12.6019C16.713 11.3715 17.0446 10.0036 17.0435 8.61538V3.69231C17.0435 2.71305 16.6587 1.77389 15.9738 1.08145C15.2889 0.38901 14.3599 0 13.3913 0H12.1739C11.851 0 11.5414 0.12967 11.3131 0.360484C11.0848 0.591298 10.9565 0.904349 10.9565 1.23077C10.9565 1.55719 11.0848 1.87024 11.3131 2.10105C11.5414 2.33187 11.851 2.46154 12.1739 2.46154H13.3913C13.7142 2.46154 14.0238 2.59121 14.2521 2.82202C14.4804 3.05284 14.6087 3.36589 14.6087 3.69231V8.61538C14.6087 9.42352 14.4512 10.2237 14.1453 10.9704C13.8394 11.717 13.3911 12.3954 12.8259 12.9668C12.2606 13.5382 11.5896 13.9915 10.8511 14.3008C10.1126 14.6101 9.32109 14.7692 8.52174 14.7692ZM23.1304 19.6923C22.4847 19.6923 21.8654 19.433 21.4088 18.9713C20.9522 18.5097 20.6956 17.8836 20.6956 17.2308C20.6956 16.5779 20.9522 15.9518 21.4088 15.4902C21.8654 15.0286 22.4847 14.7692 23.1304 14.7692C23.7762 14.7692 24.3955 15.0286 24.8521 15.4902C25.3087 15.9518 25.5652 16.5779 25.5652 17.2308C25.5652 17.8836 25.3087 18.5097 24.8521 18.9713C24.3955 19.433 23.7762 19.6923 23.1304 19.6923Z" fill="#FF48A4"/>
</svg>
