<svg width="46" height="43" viewBox="0 0 46 43" fill="none" xmlns="http://www.w3.org/2000/svg">
<path d="M41.5 17.9469V25.0531C41.5 25.8383 41.1881 26.5914 40.6329 27.1466C40.0776 27.7018 39.3246 28.0138 38.5394 28.0138H29.5099V36.9928C29.5088 37.79 29.1917 38.5543 28.6279 39.1181C28.0642 39.6818 27.2999 39.999 26.5026 40H19.509C18.7118 39.999 17.9475 39.6818 17.3837 39.1181C16.82 38.5543 16.5028 37.79 16.5018 36.9928V28.0138H7.50725C6.71 28.0127 5.94569 27.6956 5.38194 27.1318C4.8182 26.5681 4.50103 25.8038 4.5 25.0065V17.9935C4.50103 17.1962 4.8182 16.4319 5.38194 15.8682C5.94569 15.3044 6.71 14.9873 7.50725 14.9862H16.4862V6.03055C16.4862 5.2268 16.8055 4.45596 17.3739 3.88762C17.9422 3.31928 18.713 3 19.5168 3H26.4793C27.2831 3 28.0539 3.31928 28.6222 3.88762C29.1906 4.45596 29.5099 5.2268 29.5099 6.03055V14.9862H38.5394C39.3246 14.9862 40.0776 15.2982 40.6329 15.8534C41.1881 16.4086 41.5 17.1617 41.5 17.9469Z" fill="white" stroke="#D9D9D9" stroke-width="2.5" stroke-miterlimit="10"/>
</svg>
