<svg width="32" height="32" viewBox="0 0 32 32" fill="none" xmlns="http://www.w3.org/2000/svg">
<rect width="32" height="32" rx="16" fill="#FFE6F2" fill-opacity="0.25"/>
<path d="M14.6191 8.10156C16.3352 8.06265 17.9999 8.68737 19.2676 9.84473C20.5353 11.0022 21.3079 12.6038 21.4248 14.3164C21.5416 16.0289 20.994 17.7202 19.8955 19.0391L19.8369 19.1094L19.9014 19.1738L23.749 23.0205C23.7967 23.0682 23.8345 23.1252 23.8604 23.1875C23.8862 23.2499 23.9004 23.3172 23.9004 23.3848C23.9004 23.4524 23.8862 23.5195 23.8604 23.582C23.8345 23.6445 23.7968 23.7012 23.749 23.749C23.7012 23.7968 23.6445 23.8345 23.582 23.8604C23.5195 23.8862 23.4524 23.9004 23.3848 23.9004C23.3172 23.9004 23.2499 23.8862 23.1875 23.8604C23.1252 23.8345 23.0682 23.7967 23.0205 23.749L19.1738 19.9014L19.1094 19.8369L19.0391 19.8955C17.7202 20.994 16.0289 21.5416 14.3164 21.4248C12.6038 21.3079 11.0022 20.5353 9.84473 19.2676C8.68737 17.9999 8.06265 16.3352 8.10156 14.6191C8.14057 12.903 8.83987 11.2675 10.0537 10.0537C11.2675 8.83987 12.903 8.14057 14.6191 8.10156ZM15.8779 9.25488C14.7853 9.03755 13.6522 9.14889 12.623 9.5752C11.5941 10.0015 10.7145 10.7234 10.0957 11.6494C9.4768 12.5757 9.14648 13.6653 9.14648 14.7793C9.14822 16.2724 9.74206 17.7039 10.7979 18.7598C11.8537 19.8156 13.2852 20.4094 14.7783 20.4111H14.7793C15.8931 20.4111 16.9821 20.0807 17.9082 19.4619C18.8343 18.8431 19.5561 17.9636 19.9824 16.9346C20.4087 15.9054 20.5201 14.7723 20.3027 13.6797C20.0854 12.5873 19.5493 11.5835 18.7617 10.7959C17.9741 10.0083 16.9704 9.47224 15.8779 9.25488Z" fill="#FF48A4" stroke="white" stroke-width="0.2"/>
</svg>
