<svg width="35" height="30" viewBox="0 0 35 30" fill="none" xmlns="http://www.w3.org/2000/svg">
<path d="M17.9819 17.3996C19.1569 17.5192 20.2454 18.0669 21.0368 18.9368C21.8283 19.8067 22.2665 20.937 22.2667 22.109C22.2667 24.5426 20.7716 26.5564 18.7612 27.8852C16.7413 29.2235 14.0375 30 11.1333 30C8.22912 30 5.52531 29.2235 3.50541 27.8852C1.49187 26.5595 0 24.5426 0 22.109C0 20.8533 0.502702 19.649 1.39752 18.7611C2.29233 17.8732 3.50597 17.3744 4.77143 17.3744H17.4952L17.9819 17.3996ZM30.2286 17.3744C31.494 17.3744 32.7077 17.8732 33.6025 18.7611C34.4973 19.649 35 20.8533 35 22.109C35 24.3027 33.6258 25.9314 31.8731 26.932C30.13 27.9262 27.8492 28.4218 25.4571 28.4218C24.6513 28.4197 23.8656 28.3608 23.1001 28.245C24.4774 26.629 25.4508 24.5647 25.4508 22.109C25.4471 20.4002 24.8845 18.7387 23.8476 17.3744H30.2286ZM11.1397 0.00151182C12.0933 -0.0180029 13.0413 0.151578 13.928 0.500314C14.8148 0.849051 15.6224 1.36993 16.3037 2.03241C16.9849 2.69489 17.526 3.48564 17.8953 4.35833C18.2646 5.23101 18.4546 6.16806 18.4541 7.11454C18.4537 8.06103 18.2629 8.99791 17.8928 9.87026C17.5228 10.7426 16.981 11.5329 16.2991 12.1948C15.6173 12.8567 14.8092 13.3768 13.9221 13.7248C13.0351 14.0727 12.087 14.2415 11.1333 14.2211C9.25917 14.1819 7.47508 13.4157 6.1636 12.0866C4.85211 10.7575 4.11762 8.97143 4.11762 7.11132C4.11762 5.25121 4.85211 3.46514 6.1636 2.13606C7.47508 0.806979 9.25917 0.0406981 11.1333 0.00151182M26.2428 3.16107C26.9739 3.16107 27.6977 3.30395 28.3731 3.58154C29.0485 3.85913 29.6622 4.26601 30.1791 4.77893C30.696 5.29186 31.106 5.90079 31.3858 6.57095C31.6655 7.24112 31.8095 7.9594 31.8095 8.68479C31.8095 9.41017 31.6655 10.1285 31.3858 10.7986C31.106 11.4688 30.696 12.0777 30.1791 12.5906C29.6622 13.1036 29.0485 13.5104 28.3731 13.788C27.6977 14.0656 26.9739 14.2085 26.2428 14.2085C24.7665 14.2085 23.3506 13.6265 22.3066 12.5906C21.2627 11.5547 20.6762 10.1498 20.6762 8.68479C20.6762 7.21981 21.2627 5.81483 22.3066 4.77893C23.3506 3.74304 24.7665 3.16107 26.2428 3.16107Z" fill="#FF48A4"/>
</svg>
