<svg width="35" height="30" viewBox="0 0 35 30" fill="none" xmlns="http://www.w3.org/2000/svg">
<path d="M17.9746 17.5488V17.5498C19.1134 17.6656 20.1687 18.1958 20.9355 19.0381C21.7023 19.8804 22.1268 20.975 22.127 22.1094C22.127 24.476 20.6722 26.4484 18.6875 27.7598L18.6865 27.7607C16.6937 29.0803 14.0186 29.8496 11.1387 29.8496C8.25846 29.8496 5.58276 29.0804 3.58984 27.7607V27.7598L3.22363 27.5068C1.42622 26.2033 0.150391 24.3285 0.150391 22.1094C0.150402 20.8939 0.636959 19.728 1.50391 18.8682C2.37086 18.0084 3.54689 17.5254 4.77344 17.5254L17.5029 17.5244L17.9746 17.5488ZM30.2266 17.5254C31.4531 17.5254 32.6291 18.0084 33.4961 18.8682C34.363 19.728 34.8496 20.8939 34.8496 22.1094C34.8496 24.2312 33.5253 25.8178 31.7979 26.8018C30.0824 27.7797 27.8278 28.2714 25.4531 28.2715L24.8594 28.2598C24.3603 28.2409 23.8693 28.197 23.3857 28.1338C24.041 27.3282 24.5935 26.4176 24.9824 25.4033C25.1386 25.4104 25.2956 25.416 25.4531 25.416C27.473 25.416 29.1968 24.9923 30.3613 24.3291C31.5155 23.6708 31.9678 22.8895 31.9678 22.1094C31.9678 21.6507 31.7837 21.2107 31.457 20.8867C31.1305 20.5629 30.6878 20.3809 30.2266 20.3809H25.4121C25.1808 19.3549 24.7488 18.3856 24.1416 17.5254H30.2266ZM4.77344 20.3809C4.3122 20.3809 3.86954 20.5629 3.54297 20.8867C3.21631 21.2107 3.03224 21.6507 3.03223 22.1094C3.03223 23.2263 3.71872 24.4136 5.1875 25.3848C6.64733 26.3499 8.74582 26.9941 11.1387 26.9941C13.5283 26.9941 15.63 26.35 17.0898 25.3848C18.5585 24.4136 19.2441 23.2262 19.2441 22.1094C19.2442 21.7107 19.1055 21.3242 18.8516 21.0156C18.5977 20.7072 18.2444 20.4956 17.8516 20.416L17.8438 20.4141H17.8359L17.5176 20.3818L17.5107 20.3809H4.77344ZM26.2549 3.3125C26.9667 3.31251 27.6716 3.45156 28.3291 3.72168C28.9866 3.99179 29.5838 4.38779 30.0869 4.88672C30.59 5.38572 30.9895 5.97808 31.2617 6.62988C31.5339 7.2816 31.6738 7.98021 31.6738 8.68555C31.6738 9.39102 31.534 10.0903 31.2617 10.7422C30.9895 11.3939 30.59 11.9864 30.0869 12.4854C29.5838 12.9843 28.9866 13.3803 28.3291 13.6504C27.6716 13.9205 26.9667 14.0596 26.2549 14.0596C24.8174 14.0596 23.439 13.493 22.4229 12.4854C21.4067 11.4775 20.8359 10.1103 20.8359 8.68555C20.836 7.26098 21.4068 5.89443 22.4229 4.88672C23.439 3.87905 24.8174 3.3125 26.2549 3.3125ZM11.1445 0.149414L11.8643 0.193359C13.5904 0.370488 15.1887 1.17615 16.3516 2.45312C17.5157 3.73151 18.1602 5.39215 18.1611 7.11426H18.1621L18.123 7.8291C17.9434 9.5392 17.1323 11.1231 15.8447 12.2754C14.5558 13.4288 12.881 14.0676 11.1445 14.0684L10.4268 14.0312H10.4277C8.82237 13.8688 7.32239 13.1626 6.18164 12.0312C5.04275 10.9016 4.33118 9.41753 4.16602 7.8291L4.12793 7.11133C4.12793 5.2661 4.86693 3.49588 6.18262 2.19043C7.49828 0.885008 9.28297 0.150309 11.1445 0.149414ZM11.1445 3.0127C10.602 3.01272 10.0648 3.11837 9.56348 3.32422C9.06196 3.53024 8.60565 3.83306 8.22168 4.21387C7.83786 4.59459 7.53302 5.04639 7.3252 5.54395C7.11732 6.04167 7.01074 6.57545 7.01074 7.11426C7.01076 7.65302 7.11734 8.18688 7.3252 8.68457C7.53304 9.1821 7.83786 9.63395 8.22168 10.0146C8.60565 10.3955 9.06196 10.6973 9.56348 10.9033C10.0648 11.1092 10.6019 11.2158 11.1445 11.2158C12.2406 11.2158 13.292 10.7837 14.0674 10.0146C14.8428 9.24557 15.2793 8.20243 15.2793 7.11426C15.2793 6.02606 14.8428 4.98297 14.0674 4.21387C13.2919 3.44481 12.2406 3.0127 11.1445 3.0127ZM26.2549 6.16895C25.5825 6.16895 24.9368 6.43335 24.4609 6.90527C23.9852 7.37713 23.7179 8.01773 23.7178 8.68555C23.7178 9.35332 23.9854 9.9939 24.4609 10.4658C24.9368 10.9377 25.5825 11.2031 26.2549 11.2031C26.9272 11.2031 27.572 10.9377 28.0479 10.4658C28.5237 9.99387 28.792 9.35349 28.792 8.68555C28.7919 8.0177 28.5236 7.37714 28.0479 6.90527C27.5721 6.43356 26.9271 6.16897 26.2549 6.16895Z" fill="#D9D9D9" stroke="white" stroke-width="0.3"/>
</svg>
