<svg width="31" height="27" viewBox="0 0 31 27" fill="none" xmlns="http://www.w3.org/2000/svg">
<path d="M4.22852 15.9873H15.4844L15.8984 16.0088C16.8525 16.1075 17.7374 16.5591 18.3809 17.2773C19.0243 17.9957 19.3807 18.9297 19.3809 19.8984C19.3809 21.8082 18.298 23.436 16.7461 24.583L16.4297 24.8066C14.7051 25.9671 12.3788 26.6504 9.86523 26.6504C7.35187 26.6504 5.02626 25.967 3.30176 24.8066L3.30078 24.8057L2.98438 24.583C1.43112 23.4384 0.349609 21.8087 0.349609 19.8984C0.349619 18.8604 0.758833 17.865 1.48633 17.1318C2.21381 16.3987 3.20087 15.9873 4.22852 15.9873ZM26.7715 15.9873C27.7991 15.9873 28.7862 16.3987 29.5137 17.1318C30.2412 17.865 30.6504 18.8604 30.6504 19.8984C30.6504 21.7084 29.5405 23.075 28.0537 23.9355V23.9365C26.576 24.7925 24.6197 25.2285 22.5439 25.2285C22.0591 25.2272 21.5831 25.2012 21.1152 25.1523C21.5781 24.527 21.974 23.8362 22.2744 23.0811C22.3641 23.0836 22.4538 23.0889 22.5439 23.0889C24.247 23.0889 25.7308 22.7495 26.7939 22.1953L27.001 22.082C28.0691 21.463 28.5312 20.6981 28.5312 19.8984C28.5312 19.4298 28.3462 18.9797 28.0166 18.6475C27.6869 18.3153 27.2388 18.1279 26.7715 18.1279H22.6807C22.4941 17.3705 22.1906 16.6487 21.7822 15.9873H26.7715ZM4.22852 18.1279C3.76116 18.1279 3.3131 18.3153 2.9834 18.6475C2.65377 18.9797 2.46876 19.4298 2.46875 19.8984C2.46875 20.9954 3.13181 22.1225 4.47266 23.0234C5.80606 23.9193 7.70805 24.5097 9.86523 24.5098C12.0196 24.5098 13.9243 23.9193 15.2578 23.0234C16.5988 22.1225 17.2617 20.9955 17.2617 19.8984C17.2618 19.4911 17.1223 19.0955 16.8662 18.7793C16.6101 18.4634 16.2532 18.246 15.8555 18.1641L15.8379 18.1602L15.8193 18.1582L15.5381 18.1299L15.5205 18.1279H4.22852ZM23.2539 3.19629C23.8553 3.19629 24.4511 3.31588 25.0068 3.54785C25.5626 3.77986 26.0685 4.11985 26.4941 4.54883C26.9196 4.97768 27.2568 5.48723 27.4873 6.04785C27.7178 6.60871 27.8369 7.21016 27.8369 7.81738C27.8369 8.4246 27.7178 9.02607 27.4873 9.58691C27.2568 10.1475 26.9196 10.6571 26.4941 11.0859C26.0685 11.5149 25.5626 11.8549 25.0068 12.0869C24.4511 12.3189 23.8553 12.4385 23.2539 12.4385C22.0395 12.4384 20.8742 11.9522 20.0146 11.0859C19.1549 10.2195 18.6719 9.04382 18.6719 7.81738C18.6719 6.59095 19.1549 5.41524 20.0146 4.54883C20.8742 3.68258 22.0395 3.19638 23.2539 3.19629ZM10.4814 0.387695C11.9574 0.540558 13.325 1.23999 14.3203 2.35059C15.3118 3.45698 15.8639 4.89344 15.8691 6.38477L15.8359 7.02832C15.6813 8.51424 14.9867 9.88944 13.8867 10.8896C12.7877 11.8889 11.3617 12.4427 9.88281 12.4463L9.24414 12.4131C7.8785 12.2693 6.60275 11.657 5.63086 10.6777C4.65545 9.69474 4.04539 8.40153 3.90527 7.01758L3.87305 6.38184C3.87777 4.78345 4.51008 3.2521 5.63086 2.12207C6.7521 0.991614 8.27105 0.354506 9.85547 0.349609L10.4814 0.387695ZM9.87109 2.49609C9.36133 2.49609 8.85656 2.59741 8.38574 2.79395C7.91492 2.99048 7.48703 3.27873 7.12695 3.6416C6.76711 4.0043 6.48179 4.43473 6.28711 4.9082C6.09244 5.38183 5.99224 5.88985 5.99219 6.40234C5.99219 6.9149 6.09244 7.42279 6.28711 7.89648C6.48181 8.37018 6.76695 8.80122 7.12695 9.16406C7.48703 9.52694 7.91493 9.81518 8.38574 10.0117C8.85654 10.2082 9.36135 10.3096 9.87109 10.3096C10.9007 10.3096 11.888 9.89695 12.6152 9.16406C13.3423 8.43127 13.75 7.43745 13.75 6.40234C13.7499 5.36742 13.3421 4.37429 12.6152 3.6416C11.888 2.90871 10.9007 2.4961 9.87109 2.49609ZM23.2539 5.33691C22.5996 5.337 21.9725 5.59906 21.5107 6.06445C21.049 6.52982 20.79 7.16046 20.79 7.81738C20.79 8.47431 21.049 9.10495 21.5107 9.57031C21.9725 10.0357 22.5996 10.2978 23.2539 10.2979C23.9082 10.2979 24.5352 10.0357 24.9971 9.57031C25.4589 9.10494 25.7178 8.47436 25.7178 7.81738C25.7178 7.16039 25.4589 6.52983 24.9971 6.06445C24.5352 5.59909 23.9082 5.33691 23.2539 5.33691Z" fill="#FF48A4" stroke="white" stroke-width="0.7"/>
</svg>
